Andrew Blake - Unleashed - Liberte in French.

Starring: Selena with Dahlia Grey, Asia Carrera, Laura Palmer, Lea Martini, Rebecca Lord, Shelby Stevens, Misty Rain, Monique de Moan, Mark Davis and more.

Audio is labeled French but there aren't any real dialogs... ;-)

Mediainfo:

General
Format                           : Matroska
File size                        : 3.43 GiB
Duration                         : 1h 26mn
Overall bit rate                 : 5 686 Kbps
Movie name                       : Andrew Blake - Unleashed
Encoded date                     : UTC 2012-08-28 09:26:47
Writing application              : MakeMKV v1.7.71 darwin(x86-release)
Writing library                  : libmakemkv v1.7.71 (1.2.0/1.1.0) darwin(x86-release)

Video
ID                               : 1
Format                           : MPEG Video
Format version                   : Version 2
Format profile                   : Main@Main
Format settings, BVOP            : No
Format settings, Matrix          : Default
Codec ID                         : V_MPEG2
Codec ID/Info                    : MPEG 1 or 2 Video
Duration                         : 1h 26mn
Bit rate mode                    : Variable
Bit rate                         : 5 349 Kbps
Nominal bit rate                 : 7 000 Kbps
Width                            : 720 pixels
Height                           : 576 pixels
Display aspect ratio             : 4:3
Frame rate                       : 25.000 fps
Standard                         : PAL
Color space                      : YUV
Chroma subsampling               : 4:2:0
Bit depth                        : 8 bits
Scan type                        : Interlaced
Scan order                       : Top Field First
Compression mode                 : Lossy
Bits/(Pixel*Frame)               : 0.516
Stream size                      : 3.23 GiB (94%)
Language                         : English

Audio
ID                               : 2
Format                           : AC-3
Format/Info                      : Audio Coding 3
Mode extension                   : CM (complete main)
Codec ID                         : A_AC3
Duration                         : 1h 26mn
Bit rate mode                    : Constant
Bit rate                         : 224 Kbps
Channel(s)                       : 2 channels
Channel positions                : Front: L R
Sampling rate                    : 48.0 KHz
Bit depth                        : 16 bits
Compression mode                 : Lossy
Stream size                      : 138 MiB (4%)
Title                            : 2/0
Language                         : French

Menu
00:00:00.000                     : en:Chapter 01
00:02:42.800                     : en:Chapter 02
00:20:31.520                     : en:Chapter 03
00:32:14.480                     : en:Chapter 04
00:38:09.440                     : en:Chapter 05
00:48:21.680                     : en:Chapter 06
00:53:04.280                     : en:Chapter 07
01:14:35.000                     : en:Chapter 08
01:19:31.640                     : en:Chapter 09
